<svg width="51" height="65" viewBox="0 0 51 65" fill="none" xmlns="http://www.w3.org/2000/svg">
<path d="M25.9552 3.66668C25.6621 3.67669 25.3797 3.7802 25.1496 3.96209L12.1211 14.2263C10.4675 15.5294 9.5 17.5207 9.5 19.626V37.125C9.5 38.375 10.5417 39.4167 11.7917 39.4167H20.9583C22.2083 39.4167 23.25 38.375 23.25 37.125V27.9583C23.25 27.6879 23.4379 27.5 23.7083 27.5H28.2917C28.5621 27.5 28.75 27.6879 28.75 27.9583V37.125C28.75 38.375 29.7917 39.4167 31.0417 39.4167H40.2083C41.4583 39.4167 42.5 38.375 42.5 37.125V19.626C42.5 17.5207 41.5325 15.5294 39.8789 14.2263L26.8504 3.96209C26.5962 3.76123 26.2791 3.65661 25.9552 3.66668ZM26 6.79266L38.1781 16.3872C39.1718 17.1704 39.75 18.3616 39.75 19.626V36.6667H31.5V27.9583C31.5 26.203 30.047 24.75 28.2917 24.75H23.7083C21.953 24.75 20.5 26.203 20.5 27.9583V36.6667H12.25V19.626C12.25 18.3616 12.8282 17.1704 13.8219 16.3872L26 6.79266Z" fill="#F9921C"/>
<path d="M4.11914 58V49.4688H7.04297C8.00781 49.4688 8.74219 49.6621 9.24609 50.0488C9.75 50.4355 10.002 51.0117 10.002 51.7773C10.002 52.168 9.89648 52.5195 9.68555 52.832C9.47461 53.1445 9.16602 53.3867 8.75977 53.5586C9.2207 53.6836 9.57617 53.9199 9.82617 54.2676C10.0801 54.6113 10.207 55.0254 10.207 55.5098C10.207 56.3105 9.94922 56.9258 9.43359 57.3555C8.92188 57.7852 8.1875 58 7.23047 58H4.11914ZM5.60156 54.1504V56.8164H7.24805C7.71289 56.8164 8.07617 56.7012 8.33789 56.4707C8.59961 56.2402 8.73047 55.9199 8.73047 55.5098C8.73047 54.623 8.27734 54.1699 7.37109 54.1504H5.60156ZM5.60156 53.0605H7.05469C7.51562 53.0605 7.875 52.957 8.13281 52.75C8.39453 52.5391 8.52539 52.2422 8.52539 51.8594C8.52539 51.4375 8.4043 51.1328 8.16211 50.9453C7.92383 50.7578 7.55078 50.6641 7.04297 50.6641H5.60156V53.0605ZM14.3438 58.1172C13.4414 58.1172 12.709 57.834 12.1465 57.2676C11.5879 56.6973 11.3086 55.9395 11.3086 54.9941V54.8184C11.3086 54.1855 11.4297 53.6211 11.6719 53.125C11.918 52.625 12.2617 52.2363 12.7031 51.959C13.1445 51.6816 13.6367 51.543 14.1797 51.543C15.043 51.543 15.709 51.8184 16.1777 52.3691C16.6504 52.9199 16.8867 53.6992 16.8867 54.707V55.2812H12.7441C12.7871 55.8047 12.9609 56.2188 13.2656 56.5234C13.5742 56.8281 13.9609 56.9805 14.4258 56.9805C15.0781 56.9805 15.6094 56.7168 16.0195 56.1895L16.7871 56.9219C16.5332 57.3008 16.1934 57.5957 15.7676 57.8066C15.3457 58.0137 14.8711 58.1172 14.3438 58.1172ZM14.1738 52.6855C13.7832 52.6855 13.4668 52.8223 13.2246 53.0957C12.9863 53.3691 12.834 53.75 12.7676 54.2383H15.4805V54.1328C15.4492 53.6562 15.3223 53.2969 15.0996 53.0547C14.877 52.8086 14.5684 52.6855 14.1738 52.6855ZM21.3164 52.9609C21.1289 52.9297 20.9355 52.9141 20.7363 52.9141C20.084 52.9141 19.6445 53.1641 19.418 53.6641V58H17.9941V51.6602H19.3535L19.3887 52.3691C19.7324 51.8184 20.209 51.543 20.8184 51.543C21.0215 51.543 21.1895 51.5703 21.3223 51.625L21.3164 52.9609ZM25.8281 58C25.7656 57.8789 25.7109 57.6816 25.6641 57.4082C25.2109 57.8809 24.6562 58.1172 24 58.1172C23.3633 58.1172 22.8438 57.9355 22.4414 57.5723C22.0391 57.209 21.8379 56.7598 21.8379 56.2246C21.8379 55.5488 22.0879 55.0312 22.5879 54.6719C23.0918 54.3086 23.8105 54.127 24.7441 54.127H25.6172V53.7109C25.6172 53.3828 25.5254 53.1211 25.3418 52.9258C25.1582 52.7266 24.8789 52.627 24.5039 52.627C24.1797 52.627 23.9141 52.709 23.707 52.873C23.5 53.0332 23.3965 53.2383 23.3965 53.4883H21.9727C21.9727 53.1406 22.0879 52.8164 22.3184 52.5156C22.5488 52.2109 22.8613 51.9727 23.2559 51.8008C23.6543 51.6289 24.0977 51.543 24.5859 51.543C25.3281 51.543 25.9199 51.7305 26.3613 52.1055C26.8027 52.4766 27.0293 53 27.041 53.6758V56.5352C27.041 57.1055 27.1211 57.5605 27.2812 57.9004V58H25.8281ZM24.2637 56.9746C24.5449 56.9746 24.8086 56.9062 25.0547 56.7695C25.3047 56.6328 25.4922 56.4492 25.6172 56.2188V55.0234H24.8496C24.3223 55.0234 23.9258 55.1152 23.6602 55.2988C23.3945 55.4824 23.2617 55.7422 23.2617 56.0781C23.2617 56.3516 23.3516 56.5703 23.5312 56.7344C23.7148 56.8945 23.959 56.9746 24.2637 56.9746ZM29.8535 51.6602L29.8945 52.3926C30.3633 51.8262 30.9785 51.543 31.7402 51.543C33.0605 51.543 33.7324 52.2988 33.7559 53.8105V58H32.332V53.8926C32.332 53.4902 32.2441 53.1934 32.0684 53.002C31.8965 52.8066 31.6133 52.709 31.2188 52.709C30.6445 52.709 30.2168 52.9688 29.9355 53.4883V58H28.5117V51.6602H29.8535ZM34.9453 54.7832C34.9453 53.8066 35.1719 53.0234 35.625 52.4336C36.0781 51.8398 36.6855 51.543 37.4473 51.543C38.1191 51.543 38.6621 51.7773 39.0762 52.2461V49H40.5V58H39.2109L39.1406 57.3438C38.7148 57.8594 38.1465 58.1172 37.4355 58.1172C36.6934 58.1172 36.0918 57.8184 35.6309 57.2207C35.1738 56.623 34.9453 55.8105 34.9453 54.7832ZM36.3691 54.9062C36.3691 55.5508 36.4922 56.0547 36.7383 56.418C36.9883 56.7773 37.3418 56.957 37.7988 56.957C38.3809 56.957 38.8066 56.6973 39.0762 56.1777V53.4707C38.8145 52.9629 38.3926 52.709 37.8105 52.709C37.3496 52.709 36.9941 52.8926 36.7441 53.2598C36.4941 53.623 36.3691 54.1719 36.3691 54.9062ZM45.7734 58C45.7109 57.8789 45.6562 57.6816 45.6094 57.4082C45.1562 57.8809 44.6016 58.1172 43.9453 58.1172C43.3086 58.1172 42.7891 57.9355 42.3867 57.5723C41.9844 57.209 41.7832 56.7598 41.7832 56.2246C41.7832 55.5488 42.0332 55.0312 42.5332 54.6719C43.0371 54.3086 43.7559 54.127 44.6895 54.127H45.5625V53.7109C45.5625 53.3828 45.4707 53.1211 45.2871 52.9258C45.1035 52.7266 44.8242 52.627 44.4492 52.627C44.125 52.627 43.8594 52.709 43.6523 52.873C43.4453 53.0332 43.3418 53.2383 43.3418 53.4883H41.918C41.918 53.1406 42.0332 52.8164 42.2637 52.5156C42.4941 52.2109 42.8066 51.9727 43.2012 51.8008C43.5996 51.6289 44.043 51.543 44.5312 51.543C45.2734 51.543 45.8652 51.7305 46.3066 52.1055C46.748 52.4766 46.9746 53 46.9863 53.6758V56.5352C46.9863 57.1055 47.0664 57.5605 47.2266 57.9004V58H45.7734ZM44.209 56.9746C44.4902 56.9746 44.7539 56.9062 45 56.7695C45.25 56.6328 45.4375 56.4492 45.5625 56.2188V55.0234H44.7949C44.2676 55.0234 43.8711 55.1152 43.6055 55.2988C43.3398 55.4824 43.207 55.7422 43.207 56.0781C43.207 56.3516 43.2969 56.5703 43.4766 56.7344C43.6602 56.8945 43.9043 56.9746 44.209 56.9746Z" fill="#F9921C"/>
</svg>
