<svg width="51" height="61" viewBox="0 0 51 61" fill="none" xmlns="http://www.w3.org/2000/svg">
<g clip-path="url(#clip0)">
<path d="M47.8427 17.3447H33.1972C32.559 17.3447 32.041 16.8267 32.041 16.1884C32.041 15.5502 32.559 15.0322 33.1972 15.0322H47.8427C48.4809 15.0322 48.9989 15.5502 48.9989 16.1884C48.9989 16.8267 48.4809 17.3447 47.8427 17.3447Z" fill="white"/>
<path d="M42.0617 23.1254C41.7656 23.1254 41.4698 23.0127 41.2445 22.7863C40.7929 22.3344 40.7929 21.6022 41.2445 21.1505L46.2087 16.1867L41.2445 11.2225C40.7929 10.7709 40.7929 10.0386 41.2445 9.58699C41.6964 9.13506 42.4287 9.13506 42.8803 9.58699L48.6614 15.3681C49.113 15.8197 49.113 16.5519 48.6614 17.0036L42.8803 22.7846C42.6536 23.0127 42.3578 23.1254 42.0617 23.1254Z" fill="white"/>
<path d="M24.333 37.0008C24.0031 37.0008 23.69 36.9545 23.3772 36.8574L14.0996 33.7664C12.8372 33.3255 12 32.1493 12 30.8344V3.08528C12 1.38484 13.3829 0.00195312 15.0833 0.00195312C15.413 0.00195312 15.7261 0.0482469 16.0391 0.145351L25.3165 3.2363C26.5791 3.67722 27.4161 4.85348 27.4161 6.16833V33.9175C27.4161 35.6179 26.0335 37.0008 24.333 37.0008ZM15.0833 2.31438C14.6593 2.31438 14.3124 2.6613 14.3124 3.08528V30.8344C14.3124 31.1627 14.5329 31.4679 14.8473 31.5774L24.0815 34.6545C24.1479 34.676 24.2342 34.6884 24.333 34.6884C24.757 34.6884 25.1037 34.3415 25.1037 33.9175V6.16833C25.1037 5.84004 24.8832 5.5349 24.5687 5.42538L15.3346 2.34825C15.2682 2.3268 15.1818 2.31438 15.0833 2.31438Z" fill="white"/>
<path d="M35.5097 12.334C34.8715 12.334 34.3535 11.816 34.3535 11.1778V4.24052C34.3535 3.17831 33.4889 2.3134 32.4267 2.3134H15.0835C14.4452 2.3134 13.9272 1.79542 13.9272 1.15719C13.9272 0.518958 14.4452 0.000976562 15.0835 0.000976562H32.4267C34.7653 0.000976562 36.6659 1.90184 36.6659 4.24052V11.1778C36.6659 11.816 36.1479 12.334 35.5097 12.334Z" fill="white"/>
<path d="M32.4264 32.375H26.2597C25.6215 32.375 25.1035 31.857 25.1035 31.2188C25.1035 30.5806 25.6215 30.0626 26.2597 30.0626H32.4264C33.4886 30.0626 34.3532 29.1977 34.3532 28.1355V21.1982C34.3532 20.56 34.8712 20.042 35.5094 20.042C36.1477 20.042 36.6657 20.56 36.6657 21.1982V28.1355C36.6657 30.4742 34.7651 32.375 32.4264 32.375Z" fill="white"/>
</g>
<path d="M6.81445 54.8164H10.6875V56H5.33203V47.4688H6.81445V54.8164ZM11.4199 52.7715C11.4199 52.1504 11.543 51.5918 11.7891 51.0957C12.0352 50.5957 12.3809 50.2129 12.8262 49.9473C13.2715 49.6777 13.7832 49.543 14.3613 49.543C15.2168 49.543 15.9102 49.8184 16.4414 50.3691C16.9766 50.9199 17.2656 51.6504 17.3086 52.5605L17.3145 52.8945C17.3145 53.5195 17.1934 54.0781 16.9512 54.5703C16.7129 55.0625 16.3691 55.4434 15.9199 55.7129C15.4746 55.9824 14.959 56.1172 14.373 56.1172C13.4785 56.1172 12.7617 55.8203 12.2227 55.2266C11.6875 54.6289 11.4199 53.834 11.4199 52.8418V52.7715ZM12.8438 52.8945C12.8438 53.5469 12.9785 54.0586 13.248 54.4297C13.5176 54.7969 13.8926 54.9805 14.373 54.9805C14.8535 54.9805 15.2266 54.793 15.4922 54.418C15.7617 54.043 15.8965 53.4941 15.8965 52.7715C15.8965 52.1309 15.7578 51.623 15.4805 51.248C15.207 50.873 14.834 50.6855 14.3613 50.6855C13.8965 50.6855 13.5273 50.8711 13.2539 51.2422C12.9805 51.6094 12.8438 52.1602 12.8438 52.8945ZM18.2695 52.7832C18.2695 51.7988 18.5 51.0137 18.9609 50.4277C19.4258 49.8379 20.041 49.543 20.8066 49.543C21.5293 49.543 22.0977 49.7949 22.5117 50.2988L22.5762 49.6602H23.8594V55.8066C23.8594 56.6387 23.5996 57.2949 23.0801 57.7754C22.5645 58.2559 21.8672 58.4961 20.9883 58.4961C20.5234 58.4961 20.0684 58.3984 19.623 58.2031C19.1816 58.0117 18.8457 57.7598 18.6152 57.4473L19.2891 56.5918C19.7266 57.1113 20.2656 57.3711 20.9062 57.3711C21.3789 57.3711 21.752 57.2422 22.0254 56.9844C22.2988 56.7305 22.4355 56.3555 22.4355 55.8594V55.4316C22.0254 55.8887 21.4785 56.1172 20.7949 56.1172C20.0527 56.1172 19.4453 55.8223 18.9727 55.2324C18.5039 54.6426 18.2695 53.8262 18.2695 52.7832ZM19.6875 52.9062C19.6875 53.543 19.8164 54.0449 20.0742 54.4121C20.3359 54.7754 20.6973 54.957 21.1582 54.957C21.7324 54.957 22.1582 54.7109 22.4355 54.2188V51.4297C22.166 50.9492 21.7441 50.709 21.1699 50.709C20.7012 50.709 20.3359 50.8945 20.0742 51.2656C19.8164 51.6367 19.6875 52.1836 19.6875 52.9062ZM35.2617 51.957C35.2617 52.793 35.1172 53.5273 34.8281 54.1602C34.5391 54.7891 34.125 55.2734 33.5859 55.6133C33.0508 55.9492 32.4336 56.1172 31.7344 56.1172C31.043 56.1172 30.4258 55.9492 29.8828 55.6133C29.3438 55.2734 28.9258 54.791 28.6289 54.166C28.3359 53.541 28.1875 52.8203 28.1836 52.0039V51.5234C28.1836 50.6914 28.3301 49.957 28.623 49.3203C28.9199 48.6836 29.3359 48.1973 29.8711 47.8613C30.4102 47.5215 31.0273 47.3516 31.7227 47.3516C32.418 47.3516 33.0332 47.5195 33.5684 47.8555C34.1074 48.1875 34.5234 48.668 34.8164 49.2969C35.1094 49.9219 35.2578 50.6504 35.2617 51.4824V51.957ZM33.7793 51.5117C33.7793 50.5664 33.5996 49.8418 33.2402 49.3379C32.8848 48.834 32.3789 48.582 31.7227 48.582C31.082 48.582 30.5801 48.834 30.2168 49.3379C29.8574 49.8379 29.6738 50.5469 29.666 51.4648V51.957C29.666 52.8945 29.8477 53.6191 30.2109 54.1309C30.5781 54.6426 31.0859 54.8984 31.7344 54.8984C32.3906 54.8984 32.8945 54.6484 33.2461 54.1484C33.6016 53.6484 33.7793 52.918 33.7793 51.957V51.5117ZM40.4414 55.3789C40.0234 55.8711 39.4297 56.1172 38.6602 56.1172C37.9727 56.1172 37.4512 55.916 37.0957 55.5137C36.7441 55.1113 36.5684 54.5293 36.5684 53.7676V49.6602H37.9922V53.75C37.9922 54.5547 38.3262 54.957 38.9941 54.957C39.6855 54.957 40.1523 54.709 40.3945 54.2129V49.6602H41.8184V56H40.4766L40.4414 55.3789ZM45.0527 48.1191V49.6602H46.1719V50.7148H45.0527V54.2539C45.0527 54.4961 45.0996 54.6719 45.1934 54.7812C45.291 54.8867 45.4629 54.9395 45.709 54.9395C45.873 54.9395 46.0391 54.9199 46.207 54.8809V55.9824C45.8828 56.0723 45.5703 56.1172 45.2695 56.1172C44.1758 56.1172 43.6289 55.5137 43.6289 54.3066V50.7148H42.5859V49.6602H43.6289V48.1191H45.0527Z" fill="#FBFBFB"/>
<defs>
<clipPath id="clip0">
<rect width="37" height="37" fill="white" transform="translate(12)"/>
</clipPath>
</defs>
</svg>
