<svg width="65" height="61" viewBox="0 0 65 61" fill="none" xmlns="http://www.w3.org/2000/svg">
<path d="M6.12695 50.8301V54H4.64453V45.4688H7.9082C8.86133 45.4688 9.61719 45.7168 10.1758 46.2129C10.7383 46.709 11.0195 47.3652 11.0195 48.1816C11.0195 49.0176 10.7441 49.668 10.1934 50.1328C9.64648 50.5977 8.87891 50.8301 7.89062 50.8301H6.12695ZM6.12695 49.6406H7.9082C8.43555 49.6406 8.83789 49.5176 9.11523 49.2715C9.39258 49.0215 9.53125 48.6621 9.53125 48.1934C9.53125 47.7324 9.39062 47.3652 9.10938 47.0918C8.82812 46.8145 8.44141 46.6719 7.94922 46.6641H6.12695V49.6406ZM15.502 48.9609C15.3145 48.9297 15.1211 48.9141 14.9219 48.9141C14.2695 48.9141 13.8301 49.1641 13.6035 49.6641V54H12.1797V47.6602H13.5391L13.5742 48.3691C13.918 47.8184 14.3945 47.543 15.0039 47.543C15.207 47.543 15.375 47.5703 15.5078 47.625L15.502 48.9609ZM15.9238 50.7715C15.9238 50.1504 16.0469 49.5918 16.293 49.0957C16.5391 48.5957 16.8848 48.2129 17.3301 47.9473C17.7754 47.6777 18.2871 47.543 18.8652 47.543C19.7207 47.543 20.4141 47.8184 20.9453 48.3691C21.4805 48.9199 21.7695 49.6504 21.8125 50.5605L21.8184 50.8945C21.8184 51.5195 21.6973 52.0781 21.4551 52.5703C21.2168 53.0625 20.873 53.4434 20.4238 53.7129C19.9785 53.9824 19.4629 54.1172 18.877 54.1172C17.9824 54.1172 17.2656 53.8203 16.7266 53.2266C16.1914 52.6289 15.9238 51.834 15.9238 50.8418V50.7715ZM17.3477 50.8945C17.3477 51.5469 17.4824 52.0586 17.752 52.4297C18.0215 52.7969 18.3965 52.9805 18.877 52.9805C19.3574 52.9805 19.7305 52.793 19.9961 52.418C20.2656 52.043 20.4004 51.4941 20.4004 50.7715C20.4004 50.1309 20.2617 49.623 19.9844 49.248C19.7109 48.873 19.3379 48.6855 18.8652 48.6855C18.4004 48.6855 18.0312 48.8711 17.7578 49.2422C17.4844 49.6094 17.3477 50.1602 17.3477 50.8945ZM23.4004 54V48.7148H22.4336V47.6602H23.4004V47.2266C23.4043 46.7305 23.5098 46.3047 23.7168 45.9492C23.9238 45.5938 24.2168 45.3262 24.5957 45.1465C24.9746 44.9668 25.4297 44.877 25.9609 44.877C26.2734 44.877 26.5723 44.9102 26.8574 44.9766C27.1465 45.043 27.4453 45.127 27.7539 45.2285L27.5371 46.4062C26.998 46.2188 26.5059 46.125 26.0605 46.125C25.627 46.125 25.3125 46.2207 25.1172 46.4121C24.9219 46.5996 24.8242 46.8828 24.8242 47.2617V47.6602H26.0723V48.7148H24.8242V54H23.4004ZM28.4277 54H27.0039V47.6602H28.4277V54ZM31.5215 54H30.0977V45H31.5215V54ZM40.6621 51.8027C40.6621 51.4277 40.5293 51.1387 40.2637 50.9355C40.002 50.7324 39.5273 50.5273 38.8398 50.3203C38.1523 50.1133 37.6055 49.8828 37.1992 49.6289C36.4219 49.1406 36.0332 48.5039 36.0332 47.7188C36.0332 47.0312 36.3125 46.4648 36.8711 46.0195C37.4336 45.5742 38.1621 45.3516 39.0566 45.3516C39.6504 45.3516 40.1797 45.4609 40.6445 45.6797C41.1094 45.8984 41.4746 46.2109 41.7402 46.6172C42.0059 47.0195 42.1387 47.4668 42.1387 47.959H40.6621C40.6621 47.5137 40.5215 47.166 40.2402 46.916C39.9629 46.6621 39.5645 46.5352 39.0449 46.5352C38.5605 46.5352 38.1836 46.6387 37.9141 46.8457C37.6484 47.0527 37.5156 47.3418 37.5156 47.7129C37.5156 48.0254 37.6602 48.2871 37.9492 48.498C38.2383 48.7051 38.7148 48.9082 39.3789 49.1074C40.043 49.3027 40.5762 49.5273 40.9785 49.7812C41.3809 50.0312 41.6758 50.3203 41.8633 50.6484C42.0508 50.9727 42.1445 51.3535 42.1445 51.791C42.1445 52.502 41.8711 53.0684 41.3242 53.4902C40.7812 53.9082 40.043 54.1172 39.1094 54.1172C38.4922 54.1172 37.9238 54.0039 37.4043 53.7773C36.8887 53.5469 36.4863 53.2305 36.1973 52.8281C35.9121 52.4258 35.7695 51.957 35.7695 51.4219H37.252C37.252 51.9062 37.4121 52.2812 37.7324 52.5469C38.0527 52.8125 38.5117 52.9453 39.1094 52.9453C39.625 52.9453 40.0117 52.8418 40.2695 52.6348C40.5312 52.4238 40.6621 52.1465 40.6621 51.8027ZM47.0957 54C47.0332 53.8789 46.9785 53.6816 46.9316 53.4082C46.4785 53.8809 45.9238 54.1172 45.2676 54.1172C44.6309 54.1172 44.1113 53.9355 43.709 53.5723C43.3066 53.209 43.1055 52.7598 43.1055 52.2246C43.1055 51.5488 43.3555 51.0312 43.8555 50.6719C44.3594 50.3086 45.0781 50.127 46.0117 50.127H46.8848V49.7109C46.8848 49.3828 46.793 49.1211 46.6094 48.9258C46.4258 48.7266 46.1465 48.627 45.7715 48.627C45.4473 48.627 45.1816 48.709 44.9746 48.873C44.7676 49.0332 44.6641 49.2383 44.6641 49.4883H43.2402C43.2402 49.1406 43.3555 48.8164 43.5859 48.5156C43.8164 48.2109 44.1289 47.9727 44.5234 47.8008C44.9219 47.6289 45.3652 47.543 45.8535 47.543C46.5957 47.543 47.1875 47.7305 47.6289 48.1055C48.0703 48.4766 48.2969 49 48.3086 49.6758V52.5352C48.3086 53.1055 48.3887 53.5605 48.5488 53.9004V54H47.0957ZM45.5312 52.9746C45.8125 52.9746 46.0762 52.9062 46.3223 52.7695C46.5723 52.6328 46.7598 52.4492 46.8848 52.2188V51.0234H46.1172C45.5898 51.0234 45.1934 51.1152 44.9277 51.2988C44.6621 51.4824 44.5293 51.7422 44.5293 52.0781C44.5293 52.3516 44.6191 52.5703 44.7988 52.7344C44.9824 52.8945 45.2266 52.9746 45.5312 52.9746ZM51.9238 51.9609L53.2129 47.6602H54.7305L52.2109 54.9609C51.8242 56.0273 51.168 56.5605 50.2422 56.5605C50.0352 56.5605 49.8066 56.5254 49.5566 56.4551V55.3535L49.8262 55.3711C50.1855 55.3711 50.4551 55.3047 50.6348 55.1719C50.8184 55.043 50.9629 54.8242 51.0684 54.5156L51.2734 53.9707L49.0469 47.6602H50.582L51.9238 51.9609ZM59.248 54C59.1855 53.8789 59.1309 53.6816 59.084 53.4082C58.6309 53.8809 58.0762 54.1172 57.4199 54.1172C56.7832 54.1172 56.2637 53.9355 55.8613 53.5723C55.459 53.209 55.2578 52.7598 55.2578 52.2246C55.2578 51.5488 55.5078 51.0312 56.0078 50.6719C56.5117 50.3086 57.2305 50.127 58.1641 50.127H59.0371V49.7109C59.0371 49.3828 58.9453 49.1211 58.7617 48.9258C58.5781 48.7266 58.2988 48.627 57.9238 48.627C57.5996 48.627 57.334 48.709 57.127 48.873C56.9199 49.0332 56.8164 49.2383 56.8164 49.4883H55.3926C55.3926 49.1406 55.5078 48.8164 55.7383 48.5156C55.9688 48.2109 56.2812 47.9727 56.6758 47.8008C57.0742 47.6289 57.5176 47.543 58.0059 47.543C58.748 47.543 59.3398 47.7305 59.7812 48.1055C60.2227 48.4766 60.4492 49 60.4609 49.6758V52.5352C60.4609 53.1055 60.541 53.5605 60.7012 53.9004V54H59.248ZM57.6836 52.9746C57.9648 52.9746 58.2285 52.9062 58.4746 52.7695C58.7246 52.6328 58.9121 52.4492 59.0371 52.2188V51.0234H58.2695C57.7422 51.0234 57.3457 51.1152 57.0801 51.2988C56.8145 51.4824 56.6816 51.7422 56.6816 52.0781C56.6816 52.3516 56.7715 52.5703 56.9512 52.7344C57.1348 52.8945 57.3789 52.9746 57.6836 52.9746Z" fill="#FBFBFB"/>
<path d="M33.0002 20.2773C43.8168 20.2773 49.7739 25.3944 49.7739 34.6861C49.7739 35.4118 49.1858 36 48.4601 36H17.5404C16.8147 36 16.2265 35.4118 16.2265 34.6861C16.2264 25.3949 22.1835 20.2773 33.0002 20.2773ZM47.0984 33.3723C46.5816 26.425 41.8451 22.9051 33.0002 22.9051C24.1552 22.9051 19.4187 26.425 18.9015 33.3723H47.0984Z" fill="white"/>
<path d="M33 0C37.9687 0 41.7153 3.82205 41.7153 8.8901C41.7153 14.1066 37.8057 18.3499 33 18.3499C28.1944 18.3499 24.2847 14.1066 24.2847 8.89052C24.2847 3.82205 28.0314 0 33 0ZM33 15.7226C36.357 15.7226 39.0876 12.6578 39.0876 8.89052C39.0876 5.26163 36.5273 2.62772 33 2.62772C29.5292 2.62772 26.9124 5.31984 26.9124 8.89052C26.9124 12.6578 29.6431 15.7226 33 15.7226Z" fill="white"/>
</svg>
