<svg width="57" height="60" viewBox="0 0 57 60" fill="none" xmlns="http://www.w3.org/2000/svg">
<path d="M9.35742 45.6641H6.69727V53H5.22656V45.6641H2.58984V44.4688H9.35742V45.6641ZM13.2773 47.9609C13.0898 47.9297 12.8965 47.9141 12.6973 47.9141C12.0449 47.9141 11.6055 48.1641 11.3789 48.6641V53H9.95508V46.6602H11.3145L11.3496 47.3691C11.6934 46.8184 12.1699 46.543 12.7793 46.543C12.9824 46.543 13.1504 46.5703 13.2832 46.625L13.2773 47.9609ZM17.7891 53C17.7266 52.8789 17.6719 52.6816 17.625 52.4082C17.1719 52.8809 16.6172 53.1172 15.9609 53.1172C15.3242 53.1172 14.8047 52.9355 14.4023 52.5723C14 52.209 13.7988 51.7598 13.7988 51.2246C13.7988 50.5488 14.0488 50.0312 14.5488 49.6719C15.0527 49.3086 15.7715 49.127 16.7051 49.127H17.5781V48.7109C17.5781 48.3828 17.4863 48.1211 17.3027 47.9258C17.1191 47.7266 16.8398 47.627 16.4648 47.627C16.1406 47.627 15.875 47.709 15.668 47.873C15.4609 48.0332 15.3574 48.2383 15.3574 48.4883H13.9336C13.9336 48.1406 14.0488 47.8164 14.2793 47.5156C14.5098 47.2109 14.8223 46.9727 15.2168 46.8008C15.6152 46.6289 16.0586 46.543 16.5469 46.543C17.2891 46.543 17.8809 46.7305 18.3223 47.1055C18.7637 47.4766 18.9902 48 19.002 48.6758V51.5352C19.002 52.1055 19.082 52.5605 19.2422 52.9004V53H17.7891ZM16.2246 51.9746C16.5059 51.9746 16.7695 51.9062 17.0156 51.7695C17.2656 51.6328 17.4531 51.4492 17.5781 51.2188V50.0234H16.8105C16.2832 50.0234 15.8867 50.1152 15.6211 50.2988C15.3555 50.4824 15.2227 50.7422 15.2227 51.0781C15.2227 51.3516 15.3125 51.5703 15.4922 51.7344C15.6758 51.8945 15.9199 51.9746 16.2246 51.9746ZM21.8145 46.6602L21.8555 47.3926C22.3242 46.8262 22.9395 46.543 23.7012 46.543C25.0215 46.543 25.6934 47.2988 25.7168 48.8105V53H24.293V48.8926C24.293 48.4902 24.2051 48.1934 24.0293 48.002C23.8574 47.8066 23.5742 47.709 23.1797 47.709C22.6055 47.709 22.1777 47.9688 21.8965 48.4883V53H20.4727V46.6602H21.8145ZM30.7266 51.2773C30.7266 51.0234 30.6211 50.8301 30.4102 50.6973C30.2031 50.5645 29.8574 50.4473 29.373 50.3457C28.8887 50.2441 28.4844 50.1152 28.1602 49.959C27.4492 49.6152 27.0938 49.1172 27.0938 48.4648C27.0938 47.918 27.3242 47.4609 27.7852 47.0938C28.2461 46.7266 28.832 46.543 29.543 46.543C30.3008 46.543 30.9121 46.7305 31.377 47.1055C31.8457 47.4805 32.0801 47.9668 32.0801 48.5645H30.6562C30.6562 48.291 30.5547 48.0645 30.3516 47.8848C30.1484 47.7012 29.8789 47.6094 29.543 47.6094C29.2305 47.6094 28.9746 47.6816 28.7754 47.8262C28.5801 47.9707 28.4824 48.1641 28.4824 48.4062C28.4824 48.625 28.5742 48.7949 28.7578 48.916C28.9414 49.0371 29.3125 49.1602 29.8711 49.2852C30.4297 49.4062 30.8672 49.5527 31.1836 49.7246C31.5039 49.8926 31.7402 50.0957 31.8926 50.334C32.0488 50.5723 32.127 50.8613 32.127 51.2012C32.127 51.7715 31.8906 52.2344 31.418 52.5898C30.9453 52.9414 30.3262 53.1172 29.5605 53.1172C29.041 53.1172 28.5781 53.0234 28.1719 52.8359C27.7656 52.6484 27.4492 52.3906 27.2227 52.0625C26.9961 51.7344 26.8828 51.3809 26.8828 51.002H28.2656C28.2852 51.3379 28.4121 51.5977 28.6465 51.7812C28.8809 51.9609 29.1914 52.0508 29.5781 52.0508C29.9531 52.0508 30.2383 51.9805 30.4336 51.8398C30.6289 51.6953 30.7266 51.5078 30.7266 51.2773ZM37.1602 53C37.0977 52.8789 37.043 52.6816 36.9961 52.4082C36.543 52.8809 35.9883 53.1172 35.332 53.1172C34.6953 53.1172 34.1758 52.9355 33.7734 52.5723C33.3711 52.209 33.1699 51.7598 33.1699 51.2246C33.1699 50.5488 33.4199 50.0312 33.9199 49.6719C34.4238 49.3086 35.1426 49.127 36.0762 49.127H36.9492V48.7109C36.9492 48.3828 36.8574 48.1211 36.6738 47.9258C36.4902 47.7266 36.2109 47.627 35.8359 47.627C35.5117 47.627 35.2461 47.709 35.0391 47.873C34.832 48.0332 34.7285 48.2383 34.7285 48.4883H33.3047C33.3047 48.1406 33.4199 47.8164 33.6504 47.5156C33.8809 47.2109 34.1934 46.9727 34.5879 46.8008C34.9863 46.6289 35.4297 46.543 35.918 46.543C36.6602 46.543 37.252 46.7305 37.6934 47.1055C38.1348 47.4766 38.3613 48 38.373 48.6758V51.5352C38.373 52.1055 38.4531 52.5605 38.6133 52.9004V53H37.1602ZM35.5957 51.9746C35.877 51.9746 36.1406 51.9062 36.3867 51.7695C36.6367 51.6328 36.8242 51.4492 36.9492 51.2188V50.0234H36.1816C35.6543 50.0234 35.2578 50.1152 34.9922 50.2988C34.7266 50.4824 34.5938 50.7422 34.5938 51.0781C34.5938 51.3516 34.6836 51.5703 34.8633 51.7344C35.0469 51.8945 35.291 51.9746 35.5957 51.9746ZM41.9238 50.2812L41.291 50.9316V53H39.8672V44H41.291V49.1914L41.7363 48.6348L43.4883 46.6602H45.1992L42.8438 49.3027L45.4512 53H43.8047L41.9238 50.2812ZM49.6875 51.2773C49.6875 51.0234 49.582 50.8301 49.3711 50.6973C49.1641 50.5645 48.8184 50.4473 48.334 50.3457C47.8496 50.2441 47.4453 50.1152 47.1211 49.959C46.4102 49.6152 46.0547 49.1172 46.0547 48.4648C46.0547 47.918 46.2852 47.4609 46.7461 47.0938C47.207 46.7266 47.793 46.543 48.5039 46.543C49.2617 46.543 49.873 46.7305 50.3379 47.1055C50.8066 47.4805 51.041 47.9668 51.041 48.5645H49.6172C49.6172 48.291 49.5156 48.0645 49.3125 47.8848C49.1094 47.7012 48.8398 47.6094 48.5039 47.6094C48.1914 47.6094 47.9355 47.6816 47.7363 47.8262C47.541 47.9707 47.4434 48.1641 47.4434 48.4062C47.4434 48.625 47.5352 48.7949 47.7188 48.916C47.9023 49.0371 48.2734 49.1602 48.832 49.2852C49.3906 49.4062 49.8281 49.5527 50.1445 49.7246C50.4648 49.8926 50.7012 50.0957 50.8535 50.334C51.0098 50.5723 51.0879 50.8613 51.0879 51.2012C51.0879 51.7715 50.8516 52.2344 50.3789 52.5898C49.9062 52.9414 49.2871 53.1172 48.5215 53.1172C48.002 53.1172 47.5391 53.0234 47.1328 52.8359C46.7266 52.6484 46.4102 52.3906 46.1836 52.0625C45.957 51.7344 45.8438 51.3809 45.8438 51.002H47.2266C47.2461 51.3379 47.373 51.5977 47.6074 51.7812C47.8418 51.9609 48.1523 52.0508 48.5391 52.0508C48.9141 52.0508 49.1992 51.9805 49.3945 51.8398C49.5898 51.6953 49.6875 51.5078 49.6875 51.2773ZM53.8477 53H52.4238V46.6602H53.8477V53ZM52.3359 45.0137C52.3359 44.7949 52.4043 44.6133 52.541 44.4688C52.6816 44.3242 52.8809 44.252 53.1387 44.252C53.3965 44.252 53.5957 44.3242 53.7363 44.4688C53.877 44.6133 53.9473 44.7949 53.9473 45.0137C53.9473 45.2285 53.877 45.4082 53.7363 45.5527C53.5957 45.6934 53.3965 45.7637 53.1387 45.7637C52.8809 45.7637 52.6816 45.6934 52.541 45.5527C52.4043 45.4082 52.3359 45.2285 52.3359 45.0137Z" fill="#F9921C"/>
<g clip-path="url(#clip0)">
<path d="M11.4652 8.42048L19.4197 0.465988C20.0408 -0.155329 21.0482 -0.155329 21.6695 0.465988C22.2908 1.08731 22.2908 2.09451 21.6695 2.71583L16.4308 7.95461H44.4081C45.2867 7.95461 45.999 8.66691 45.999 9.54553C45.999 10.4242 45.2867 11.1365 44.4081 11.1365H16.4308L21.6694 16.3752C22.2907 16.9965 22.2907 18.0038 21.6694 18.625C21.3589 18.9356 20.9517 19.0909 20.5446 19.0909C20.1374 19.0909 19.7302 18.9357 19.4197 18.6249L11.4652 10.6704C10.8439 10.0491 10.8439 9.04179 11.4652 8.42048Z" fill="#F9921C"/>
<path d="M12.5909 23.8638H40.5683L35.3296 18.625C34.7083 18.0037 34.7083 16.9965 35.3296 16.3752C35.9508 15.7539 36.9581 15.7539 37.5795 16.3752L45.534 24.3297C46.1553 24.951 46.1553 25.9582 45.534 26.5795L37.5795 34.534C37.2688 34.8448 36.8617 35.0001 36.4545 35.0001C36.0474 35.0001 35.6402 34.8448 35.3297 34.534C34.7084 33.9127 34.7084 32.9055 35.3297 32.2842L40.5683 27.0456H12.5909C11.7123 27.0456 11 26.3333 11 25.4546C11 24.5761 11.7123 23.8638 12.5909 23.8638Z" fill="#F9921C"/>
</g>
<defs>
<clipPath id="clip0">
<rect width="35" height="35" fill="white" transform="matrix(-1 0 0 1 46 0)"/>
</clipPath>
</defs>
</svg>
