<svg width="57" height="61" viewBox="0 0 57 61" fill="none" xmlns="http://www.w3.org/2000/svg">
<path d="M9.35742 46.6641H6.69727V54H5.22656V46.6641H2.58984V45.4688H9.35742V46.6641ZM13.2773 48.9609C13.0898 48.9297 12.8965 48.9141 12.6973 48.9141C12.0449 48.9141 11.6055 49.1641 11.3789 49.6641V54H9.95508V47.6602H11.3145L11.3496 48.3691C11.6934 47.8184 12.1699 47.543 12.7793 47.543C12.9824 47.543 13.1504 47.5703 13.2832 47.625L13.2773 48.9609ZM17.7891 54C17.7266 53.8789 17.6719 53.6816 17.625 53.4082C17.1719 53.8809 16.6172 54.1172 15.9609 54.1172C15.3242 54.1172 14.8047 53.9355 14.4023 53.5723C14 53.209 13.7988 52.7598 13.7988 52.2246C13.7988 51.5488 14.0488 51.0312 14.5488 50.6719C15.0527 50.3086 15.7715 50.127 16.7051 50.127H17.5781V49.7109C17.5781 49.3828 17.4863 49.1211 17.3027 48.9258C17.1191 48.7266 16.8398 48.627 16.4648 48.627C16.1406 48.627 15.875 48.709 15.668 48.873C15.4609 49.0332 15.3574 49.2383 15.3574 49.4883H13.9336C13.9336 49.1406 14.0488 48.8164 14.2793 48.5156C14.5098 48.2109 14.8223 47.9727 15.2168 47.8008C15.6152 47.6289 16.0586 47.543 16.5469 47.543C17.2891 47.543 17.8809 47.7305 18.3223 48.1055C18.7637 48.4766 18.9902 49 19.002 49.6758V52.5352C19.002 53.1055 19.082 53.5605 19.2422 53.9004V54H17.7891ZM16.2246 52.9746C16.5059 52.9746 16.7695 52.9062 17.0156 52.7695C17.2656 52.6328 17.4531 52.4492 17.5781 52.2188V51.0234H16.8105C16.2832 51.0234 15.8867 51.1152 15.6211 51.2988C15.3555 51.4824 15.2227 51.7422 15.2227 52.0781C15.2227 52.3516 15.3125 52.5703 15.4922 52.7344C15.6758 52.8945 15.9199 52.9746 16.2246 52.9746ZM21.8145 47.6602L21.8555 48.3926C22.3242 47.8262 22.9395 47.543 23.7012 47.543C25.0215 47.543 25.6934 48.2988 25.7168 49.8105V54H24.293V49.8926C24.293 49.4902 24.2051 49.1934 24.0293 49.002C23.8574 48.8066 23.5742 48.709 23.1797 48.709C22.6055 48.709 22.1777 48.9688 21.8965 49.4883V54H20.4727V47.6602H21.8145ZM30.7266 52.2773C30.7266 52.0234 30.6211 51.8301 30.4102 51.6973C30.2031 51.5645 29.8574 51.4473 29.373 51.3457C28.8887 51.2441 28.4844 51.1152 28.1602 50.959C27.4492 50.6152 27.0938 50.1172 27.0938 49.4648C27.0938 48.918 27.3242 48.4609 27.7852 48.0938C28.2461 47.7266 28.832 47.543 29.543 47.543C30.3008 47.543 30.9121 47.7305 31.377 48.1055C31.8457 48.4805 32.0801 48.9668 32.0801 49.5645H30.6562C30.6562 49.291 30.5547 49.0645 30.3516 48.8848C30.1484 48.7012 29.8789 48.6094 29.543 48.6094C29.2305 48.6094 28.9746 48.6816 28.7754 48.8262C28.5801 48.9707 28.4824 49.1641 28.4824 49.4062C28.4824 49.625 28.5742 49.7949 28.7578 49.916C28.9414 50.0371 29.3125 50.1602 29.8711 50.2852C30.4297 50.4062 30.8672 50.5527 31.1836 50.7246C31.5039 50.8926 31.7402 51.0957 31.8926 51.334C32.0488 51.5723 32.127 51.8613 32.127 52.2012C32.127 52.7715 31.8906 53.2344 31.418 53.5898C30.9453 53.9414 30.3262 54.1172 29.5605 54.1172C29.041 54.1172 28.5781 54.0234 28.1719 53.8359C27.7656 53.6484 27.4492 53.3906 27.2227 53.0625C26.9961 52.7344 26.8828 52.3809 26.8828 52.002H28.2656C28.2852 52.3379 28.4121 52.5977 28.6465 52.7812C28.8809 52.9609 29.1914 53.0508 29.5781 53.0508C29.9531 53.0508 30.2383 52.9805 30.4336 52.8398C30.6289 52.6953 30.7266 52.5078 30.7266 52.2773ZM37.1602 54C37.0977 53.8789 37.043 53.6816 36.9961 53.4082C36.543 53.8809 35.9883 54.1172 35.332 54.1172C34.6953 54.1172 34.1758 53.9355 33.7734 53.5723C33.3711 53.209 33.1699 52.7598 33.1699 52.2246C33.1699 51.5488 33.4199 51.0312 33.9199 50.6719C34.4238 50.3086 35.1426 50.127 36.0762 50.127H36.9492V49.7109C36.9492 49.3828 36.8574 49.1211 36.6738 48.9258C36.4902 48.7266 36.2109 48.627 35.8359 48.627C35.5117 48.627 35.2461 48.709 35.0391 48.873C34.832 49.0332 34.7285 49.2383 34.7285 49.4883H33.3047C33.3047 49.1406 33.4199 48.8164 33.6504 48.5156C33.8809 48.2109 34.1934 47.9727 34.5879 47.8008C34.9863 47.6289 35.4297 47.543 35.918 47.543C36.6602 47.543 37.252 47.7305 37.6934 48.1055C38.1348 48.4766 38.3613 49 38.373 49.6758V52.5352C38.373 53.1055 38.4531 53.5605 38.6133 53.9004V54H37.1602ZM35.5957 52.9746C35.877 52.9746 36.1406 52.9062 36.3867 52.7695C36.6367 52.6328 36.8242 52.4492 36.9492 52.2188V51.0234H36.1816C35.6543 51.0234 35.2578 51.1152 34.9922 51.2988C34.7266 51.4824 34.5938 51.7422 34.5938 52.0781C34.5938 52.3516 34.6836 52.5703 34.8633 52.7344C35.0469 52.8945 35.291 52.9746 35.5957 52.9746ZM41.9238 51.2812L41.291 51.9316V54H39.8672V45H41.291V50.1914L41.7363 49.6348L43.4883 47.6602H45.1992L42.8438 50.3027L45.4512 54H43.8047L41.9238 51.2812ZM49.6875 52.2773C49.6875 52.0234 49.582 51.8301 49.3711 51.6973C49.1641 51.5645 48.8184 51.4473 48.334 51.3457C47.8496 51.2441 47.4453 51.1152 47.1211 50.959C46.4102 50.6152 46.0547 50.1172 46.0547 49.4648C46.0547 48.918 46.2852 48.4609 46.7461 48.0938C47.207 47.7266 47.793 47.543 48.5039 47.543C49.2617 47.543 49.873 47.7305 50.3379 48.1055C50.8066 48.4805 51.041 48.9668 51.041 49.5645H49.6172C49.6172 49.291 49.5156 49.0645 49.3125 48.8848C49.1094 48.7012 48.8398 48.6094 48.5039 48.6094C48.1914 48.6094 47.9355 48.6816 47.7363 48.8262C47.541 48.9707 47.4434 49.1641 47.4434 49.4062C47.4434 49.625 47.5352 49.7949 47.7188 49.916C47.9023 50.0371 48.2734 50.1602 48.832 50.2852C49.3906 50.4062 49.8281 50.5527 50.1445 50.7246C50.4648 50.8926 50.7012 51.0957 50.8535 51.334C51.0098 51.5723 51.0879 51.8613 51.0879 52.2012C51.0879 52.7715 50.8516 53.2344 50.3789 53.5898C49.9062 53.9414 49.2871 54.1172 48.5215 54.1172C48.002 54.1172 47.5391 54.0234 47.1328 53.8359C46.7266 53.6484 46.4102 53.3906 46.1836 53.0625C45.957 52.7344 45.8438 52.3809 45.8438 52.002H47.2266C47.2461 52.3379 47.373 52.5977 47.6074 52.7812C47.8418 52.9609 48.1523 53.0508 48.5391 53.0508C48.9141 53.0508 49.1992 52.9805 49.3945 52.8398C49.5898 52.6953 49.6875 52.5078 49.6875 52.2773ZM53.8477 54H52.4238V47.6602H53.8477V54ZM52.3359 46.0137C52.3359 45.7949 52.4043 45.6133 52.541 45.4688C52.6816 45.3242 52.8809 45.252 53.1387 45.252C53.3965 45.252 53.5957 45.3242 53.7363 45.4688C53.877 45.6133 53.9473 45.7949 53.9473 46.0137C53.9473 46.2285 53.877 46.4082 53.7363 46.5527C53.5957 46.6934 53.3965 46.7637 53.1387 46.7637C52.8809 46.7637 52.6816 46.6934 52.541 46.5527C52.4043 46.4082 52.3359 46.2285 52.3359 46.0137Z" fill="#FBFBFB"/>
<g clip-path="url(#clip0)">
<path d="M11.4652 8.42048L19.4197 0.465988C20.0408 -0.155329 21.0482 -0.155329 21.6695 0.465988C22.2908 1.08731 22.2908 2.09451 21.6695 2.71583L16.4308 7.95461H44.4081C45.2867 7.95461 45.999 8.66691 45.999 9.54553C45.999 10.4242 45.2867 11.1365 44.4081 11.1365H16.4308L21.6694 16.3752C22.2907 16.9965 22.2907 18.0038 21.6694 18.625C21.3589 18.9356 20.9517 19.0909 20.5446 19.0909C20.1374 19.0909 19.7302 18.9357 19.4197 18.6249L11.4652 10.6704C10.8439 10.0491 10.8439 9.04179 11.4652 8.42048Z" fill="white"/>
<path d="M12.5909 23.8638H40.5683L35.3296 18.625C34.7083 18.0037 34.7083 16.9965 35.3296 16.3752C35.9508 15.7539 36.9581 15.7539 37.5795 16.3752L45.534 24.3297C46.1553 24.951 46.1553 25.9582 45.534 26.5795L37.5795 34.534C37.2688 34.8448 36.8617 35.0001 36.4545 35.0001C36.0474 35.0001 35.6402 34.8448 35.3297 34.534C34.7084 33.9127 34.7084 32.9055 35.3297 32.2842L40.5683 27.0456H12.5909C11.7123 27.0456 11 26.3333 11 25.4546C11 24.5761 11.7123 23.8638 12.5909 23.8638Z" fill="white"/>
</g>
<defs>
<clipPath id="clip0">
<rect width="35" height="35" fill="white" transform="matrix(-1 0 0 1 46 0)"/>
</clipPath>
</defs>
</svg>
