<svg width="53" height="50" viewBox="0 0 53 50" fill="none" xmlns="http://www.w3.org/2000/svg">
<path d="M25.4232 0.954452C25.721 0.0299795 27.029 0.0299771 27.3268 0.95445L32.7187 17.6906C32.8518 18.1039 33.2363 18.384 33.6705 18.384H51.1368C52.1035 18.384 52.5076 19.6193 51.7279 20.1906L37.5827 30.5555C37.2352 30.8102 37.0898 31.2587 37.2219 31.6688L42.6215 48.4288C42.9187 49.3516 41.8606 50.1151 41.0786 49.5421L26.9661 39.2011C26.6142 38.9433 26.1358 38.9433 25.7839 39.2011L11.6714 49.5421C10.8894 50.1151 9.83125 49.3516 10.1285 48.4288L15.5281 31.6688C15.6602 31.2587 15.5148 30.8102 15.1673 30.5555L1.02214 20.1906C0.242401 19.6193 0.646532 18.384 1.61319 18.384H19.0795C19.5137 18.384 19.8982 18.1039 20.0313 17.6906L25.4232 0.954452Z" fill="#FDD836"/>
</svg>
