<svg width="53" height="50" viewBox="0 0 53 50" fill="none" xmlns="http://www.w3.org/2000/svg">
<path d="M25.7982 0.954452C26.096 0.0299795 27.404 0.0299771 27.7018 0.95445L33.0937 17.6906C33.2268 18.1039 33.6113 18.384 34.0455 18.384H51.5118C52.4785 18.384 52.8826 19.6193 52.1029 20.1906L37.9577 30.5555C37.6102 30.8102 37.4648 31.2587 37.5969 31.6688L42.9965 48.4288C43.2937 49.3516 42.2356 50.1151 41.4536 49.5421L27.3411 39.2011C26.9892 38.9433 26.5108 38.9433 26.1589 39.2011L12.0464 49.5421C11.2644 50.1151 10.2063 49.3516 10.5035 48.4288L15.9031 31.6688C16.0352 31.2587 15.8898 30.8102 15.5423 30.5555L1.39714 20.1906C0.617401 19.6193 1.02153 18.384 1.98819 18.384H19.4545C19.8887 18.384 20.2732 18.1039 20.4063 17.6906L25.7982 0.954452Z" fill="#D8D8D8"/>
</svg>
