<svg width="470" height="180" viewBox="0 0 470 180" fill="none" xmlns="http://www.w3.org/2000/svg">
<path d="M82.4023 17.5469H75.2539L73.6484 22H71.3281L77.8438 4.9375H79.8125L86.3398 22H84.0312L82.4023 17.5469ZM75.9336 15.6953H81.7344L78.8281 7.71484L75.9336 15.6953ZM110.15 22H107.888L99.2984 8.85156V22H97.0367V4.9375H99.2984L107.912 18.1445V4.9375H110.15V22ZM133.984 6.78906H128.499V22H126.261V6.78906H120.788V4.9375H133.984V6.78906ZM153.399 17.5469H146.251L144.645 22H142.325L148.841 4.9375H150.809L157.337 22H155.028L153.399 17.5469ZM146.93 15.6953H152.731L149.825 7.71484L146.93 15.6953ZM174.291 15.0977H170.284V22H168.022V4.9375H173.67C175.592 4.9375 177.069 5.375 178.1 6.25C179.139 7.125 179.659 8.39844 179.659 10.0703C179.659 11.1328 179.37 12.0586 178.791 12.8477C178.221 13.6367 177.424 14.2266 176.401 14.6172L180.409 21.8594V22H177.995L174.291 15.0977ZM170.284 13.2578H173.741C174.858 13.2578 175.745 12.9688 176.401 12.3906C177.065 11.8125 177.397 11.0391 177.397 10.0703C177.397 9.01562 177.08 8.20703 176.448 7.64453C175.823 7.08203 174.916 6.79688 173.729 6.78906H170.284V13.2578ZM209.748 15.6367H204.029V13.8672H209.748V15.6367ZM242.11 4.9375H244.372V17.0195C244.372 18.6523 243.88 19.9297 242.895 20.8516C241.919 21.7734 240.614 22.2344 238.981 22.2344C237.286 22.2344 235.966 21.8008 235.02 20.9336C234.075 20.0664 233.602 18.8516 233.602 17.2891H235.852C235.852 18.2656 236.118 19.0273 236.649 19.5742C237.188 20.1211 237.966 20.3945 238.981 20.3945C239.911 20.3945 240.661 20.1016 241.231 19.5156C241.809 18.9297 242.102 18.1094 242.11 17.0547V4.9375ZM266.248 14.1133H258.854V20.1602H267.444V22H256.604V4.9375H267.327V6.78906H258.854V12.2734H266.248V14.1133ZM281.551 4.9375L287.129 18.8594L292.707 4.9375H295.625V22H293.375V15.3555L293.586 8.18359L287.984 22H286.262L280.672 8.21875L280.895 15.3555V22H278.645V4.9375H281.551ZM310.248 15.3203V22H307.998V4.9375H314.291C316.158 4.9375 317.619 5.41406 318.673 6.36719C319.736 7.32031 320.267 8.58203 320.267 10.1523C320.267 11.8086 319.748 13.0859 318.709 13.9844C317.677 14.875 316.197 15.3203 314.267 15.3203H310.248ZM310.248 13.4805H314.291C315.494 13.4805 316.416 13.1992 317.056 12.6367C317.697 12.0664 318.017 11.2461 318.017 10.1758C318.017 9.16016 317.697 8.34766 317.056 7.73828C316.416 7.12891 315.537 6.8125 314.42 6.78906H310.248V13.4805ZM343.55 4.9375V16.5391C343.542 18.1484 343.034 19.4648 342.027 20.4883C341.027 21.5117 339.667 22.0859 337.948 22.2109L337.351 22.2344C335.484 22.2344 333.995 21.7305 332.886 20.7227C331.777 19.7148 331.214 18.3281 331.198 16.5625V4.9375H333.425V16.4922C333.425 17.7266 333.765 18.6875 334.445 19.375C335.124 20.0547 336.093 20.3945 337.351 20.3945C338.624 20.3945 339.597 20.0547 340.269 19.375C340.948 18.6953 341.288 17.7383 341.288 16.5039V4.9375H343.55ZM367.29 6.78906H361.805V22H359.567V6.78906H354.095V4.9375H367.29V6.78906Z" fill="#5F5E5E"/>
<g filter="url(#filter0_d)">
<path d="M7.61719 150V64.6875H37.5C47.8516 64.6875 55.7031 66.6797 61.0547 70.6641C66.4062 74.6094 69.082 80.4102 69.082 88.0664C69.082 92.2461 68.0078 95.9375 65.8594 99.1406C63.7109 102.305 60.7227 104.629 56.8945 106.113C61.2695 107.207 64.707 109.414 67.207 112.734C69.7461 116.055 71.0156 120.117 71.0156 124.922C71.0156 133.125 68.3984 139.336 63.1641 143.555C57.9297 147.773 50.4688 149.922 40.7812 150H7.61719ZM25.1953 112.852V135.879H40.2539C44.3945 135.879 47.6172 134.902 49.9219 132.949C52.2656 130.957 53.4375 128.223 53.4375 124.746C53.4375 116.934 49.3945 112.969 41.3086 112.852H25.1953ZM25.1953 100.43H38.2031C47.0703 100.273 51.5039 96.7383 51.5039 89.8242C51.5039 85.957 50.3711 83.1836 48.1055 81.5039C45.8789 79.7852 42.3438 78.9258 37.5 78.9258H25.1953V100.43ZM115.84 118.77H101.836V150H84.2578V64.6875H115.957C126.035 64.6875 133.809 66.9336 139.277 71.4258C144.746 75.918 147.48 82.2656 147.48 90.4688C147.48 96.2891 146.211 101.152 143.672 105.059C141.172 108.926 137.363 112.012 132.246 114.316L150.703 149.18V150H131.836L115.84 118.77ZM101.836 104.531H116.016C120.43 104.531 123.848 103.418 126.27 101.191C128.691 98.9258 129.902 95.8203 129.902 91.875C129.902 87.8516 128.75 84.6875 126.445 82.3828C124.18 80.0781 120.684 78.9258 115.957 78.9258H101.836V104.531ZM179.59 150H162.012V64.6875H179.59V150Z" fill="#014A94"/>
<path d="M213.516 135.879H250.84V150H195.938V64.6875H213.516V135.879ZM277.734 150H260.742V86.6016H277.734V150ZM259.746 70.1953C259.746 67.6562 260.586 65.5664 262.266 63.9258C263.984 62.2852 266.309 61.4648 269.238 61.4648C272.129 61.4648 274.434 62.2852 276.152 63.9258C277.871 65.5664 278.73 67.6562 278.73 70.1953C278.73 72.7734 277.852 74.8828 276.094 76.5234C274.375 78.1641 272.09 78.9844 269.238 78.9844C266.387 78.9844 264.082 78.1641 262.324 76.5234C260.605 74.8828 259.746 72.7734 259.746 70.1953ZM307.324 86.6016L307.852 93.9258C312.383 88.2617 318.457 85.4297 326.074 85.4297C332.793 85.4297 337.793 87.4023 341.074 91.3477C344.355 95.293 346.035 101.191 346.113 109.043V150H329.18V109.453C329.18 105.859 328.398 103.262 326.836 101.66C325.273 100.02 322.676 99.1992 319.043 99.1992C314.277 99.1992 310.703 101.23 308.32 105.293V150H291.387V86.6016H307.324ZM382.031 124.57L375.938 130.664V150H359.004V60H375.938V109.863L379.219 105.645L395.449 86.6016H415.781L392.871 113.027L417.773 150H398.32L382.031 124.57Z" fill="#F9921C"/>
</g>
<rect x="429" y="135" width="19" height="18" rx="5" fill="#F9921C"/>
<defs>
<filter id="filter0_d" x="0.617188" y="57" width="424.156" height="104" filterUnits="userSpaceOnUse" color-interpolation-filters="sRGB">
<feFlood flood-opacity="0" result="BackgroundImageFix"/>
<feColorMatrix in="SourceAlpha" type="matrix" values="0 0 0 0 0 0 0 0 0 0 0 0 0 0 0 0 0 0 127 0" result="hardAlpha"/>
<feOffset dy="4"/>
<feGaussianBlur stdDeviation="3.5"/>
<feComposite in2="hardAlpha" operator="out"/>
<feColorMatrix type="matrix" values="0 0 0 0 0 0 0 0 0 0 0 0 0 0 0 0 0 0 0.15 0"/>
<feBlend mode="normal" in2="BackgroundImageFix" result="effect1_dropShadow"/>
<feBlend mode="normal" in="SourceGraphic" in2="effect1_dropShadow" result="shape"/>
</filter>
</defs>
</svg>
